# xmcd
#
# Track frame offsets: 
#        150
#        12337
#        32732
#        52160
#        67482
#        80877
#        93997
#        109025
#        119832
#        137270
#        159147
#        168172
#
# Disc length: 2679 seconds
#
# Revision: 0
# Processed by: cddbd v1.5.2PL0 Copyright (c) Steve Scherf et al.
# Submitted via: ExactAudioCopy v0.99pb4
#
DISCID=a20a750c
DTITLE=Jana Jae - Live
DYEAR=2001
DGENRE=Fiddle
TTITLE0=Devil's Dream
TTITLE1=Y'All Come
TTITLE2=Listen To The Mockingbird
TTITLE3=Sugarfoot Rag
TTITLE4=Faded Love  Maiden's Prayer
TTITLE5=Diggy Diggy Li
TTITLE6=Free Wheelin'
TTITLE7=Czardas
TTITLE8=The South's Gonna Do It Again
TTITLE9=Th Devil Went On To Tulsa
TTITLE10=Rollin'In My Sweet Baby's Arms
TTITLE11=Medley Cotton-Eyed Joe -Tennessee Waltz -Orange Blossom Very 
TTITLE11=Special
EXTD=
EXTT0=
EXTT1=
EXTT2=
EXTT3=
EXTT4=
EXTT5=
EXTT6=
EXTT7=
EXTT8=
EXTT9=
EXTT10=
EXTT11=
PLAYORDER=
